<svg xmlns="http://www.w3.org/2000/svg" viewBox="0 0 512 512" width="100%" height="100%">
  <defs>
    <linearGradient id="bg-grad" x1="0%" y1="0%" x2="100%" y2="100%">
      <stop offset="0%" stop-color="#0f172a" />
      <stop offset="100%" stop-color="#1e293b" />
    </linearGradient>
    
    <linearGradient id="primary-grad" x1="0%" y1="100%" x2="100%" y2="0%">
      <stop offset="0%" stop-color="#059669" />
      <stop offset="100%" stop-color="#10b981" />
    </linearGradient>
  </defs>

  <rect width="512" height="512" rx="128" fill="url(#bg-grad)" />

  <circle cx="256" cy="256" r="180" fill="none" stroke="url(#primary-grad)" stroke-width="8" stroke-dasharray="16 16" opacity="0.3" />

  <g fill="url(#primary-grad)" opacity="0.85">
    <rect x="140" y="280" width="40" height="100" rx="12" />
    <rect x="200" y="220" width="40" height="160" rx="12" />
    <rect x="260" y="160" width="40" height="220" rx="12" />
  </g>

  <path d="M356 140 c-15 0 -26 10 -26 24 c0 22 36 26 36 48 c0 10 -9 16 -20 16 c-12 0 -22 -6 -26 -14 m16 -84 l0 120 m20 -120 l0 120" 
        fill="none" stroke="url(#primary-grad)" stroke-width="16" stroke-linecap="round" stroke-linejoin="round" />

  <path d="M140 380 L220 300 L280 330 L380 180" fill="none" stroke="#67e8f9" stroke-width="14" stroke-linecap="round" stroke-linejoin="round" />
  <path d="M330 180 L380 180 L380 230" fill="none" stroke="#67e8f9" stroke-width="14" stroke-linecap="round" stroke-linejoin="round" />
</svg>
